<svg xmlns="http://www.w3.org/2000/svg" viewBox="0 0 64 64" role="img" aria-label="FG">
  <rect width="64" height="64" fill="#ffffff"/>
  <path fill="#000000" transform="translate(4.6605 44.3344) scale(0.034745 -0.034745)" d="M96.11626487641135 0.0V710.0H555.5880378394874V677.6411351846201H130.5349404943546V377.9136405248703H492.41196216051264V346.58468111077207H130.5349404943546V0.0ZM1198.3222459566678 -5.0Q1125.146170277693 -5.0 1063.8521513579494 25.897009459871835Q1002.5581324382057 56.79401891974367 957.9551418980775 108.6910283796155Q913.3521513579493 160.58803783948733 888.7491608178211 224.6910283796155Q864.146170277693 288.7940189197437 864.146170277693 355.41196216051264Q864.146170277693 425.02990540128167 887.9551418980775 489.52990540128167Q911.764113518462 554.0299054012817 955.4700945987183 604.8239243210253Q999.1760756789747 655.617943240769 1058.4850472993592 685.3089716203845Q1117.7940189197436 715.0 1188.7940189197436 715.0Q1297.3521513579494 715.0 1361.5730851388466 671.6029905401282Q1425.7940189197436 628.2059810802564 1459.7940189197436 560.0L1430.4949649069272 545.348794629234Q1392.348794629234 617.6710405859018 1330.0115959719255 650.0530973451328Q1267.674397314617 682.4351541043637 1188.382056759231 682.4351541043637Q1121.6777540433322 682.4351541043637 1068.1495270064083 654.6710405859017Q1014.6212999694843 626.9069270674397 976.769148611535 579.8637473298749Q938.9169972535856 532.82056759231 918.843912114739 474.4833689350015Q898.7708269758925 416.146170277693 898.7708269758925 355.0Q898.7708269758925 290.05981080256333 922.0349404943545 231.2226121452548Q945.2990540128166 172.3854134879463 986.4452242905095 126.34223375038144Q1027.5913945682025 80.2990540128166 1082.1196216051267 53.931949954226425Q1136.6478486420506 27.564845895636253 1199.764113518462 27.564845895636253Q1271.0863594751297 27.564845895636253 1334.82056759231 62.13793103448276Q1398.5547757094905 96.71101617332927 1457.877021666158 171.8272810497406V130.43851083307902Q1347.5846811107722 -5.0 1198.3222459566678 -5.0ZM1446.0830027464144 311.40860543179735H1281.966737870003V341.2956972841013H1477.617943240769V0.0H1446.0830027464144Z"/>
</svg>
