<svg xmlns="http://www.w3.org/2000/svg" viewBox="0 0 64 64" role="img" aria-label="FG">
  <rect x="2" y="2" width="60" height="60" rx="13" fill="#ffffff"/>
  <path fill="#000000" transform="translate(2.1381 46.0410) scale(0.039552 -0.039552)" d="M85 0V710H554V630H175V393H494V318H175V0ZM1133 -5Q1063 -5 1002.5 25.5Q942 56 897.0 107.5Q852 159 827.0 223.5Q802 288 802 357Q802 429 827.0 493.5Q852 558 896.5 608.0Q941 658 1001.5 686.5Q1062 715 1133 715Q1236 715 1303.0 672.0Q1370 629 1404 560L1335 512Q1304 574 1250.0 604.0Q1196 634 1131 634Q1077 634 1033.0 611.0Q989 588 957.5 548.5Q926 509 909.5 459.0Q893 409 893 355Q893 298 911.5 247.5Q930 197 964.0 158.5Q998 120 1043.0 98.0Q1088 76 1140 76Q1201 76 1256.0 107.0Q1311 138 1360 202V109Q1264 -5 1133 -5ZM1349 286H1196V354H1425V0H1349Z"/>
</svg>
